<?xml version="1.0" standalone="no"?>
<!DOCTYPE svg PUBLIC "-//W3C//DTD SVG 20010904//EN"
 "http://www.w3.org/TR/2001/REC-SVG-20010904/DTD/svg10.dtd">
<svg version="1.0" xmlns="http://www.w3.org/2000/svg"
 width="670.000000pt" height="828.000000pt" viewBox="0 0 670.000000 828.000000"
 preserveAspectRatio="xMidYMid meet">

<g transform="translate(0.000000,828.000000) scale(0.100000,-0.100000)"
fill="#000000" stroke="none">
<path d="M2734 8101 c-105 -41 -200 -109 -295 -209 -208 -219 -294 -499 -220
-714 10 -31 27 -68 36 -82 l17 -26 -59 0 c-33 0 -81 6 -107 14 -87 26 -125 60
-192 172 -10 17 -13 15 -29 -21 -9 -22 -28 -83 -41 -135 -66 -254 2 -561 140
-635 l34 -18 -43 -86 c-53 -107 -95 -231 -128 -381 -30 -133 -62 -338 -55
-345 3 -3 42 4 88 14 46 11 129 23 184 26 l101 6 -83 -29 c-149 -54 -298 -161
-383 -277 -69 -93 -143 -250 -168 -355 -66 -273 37 -586 260 -795 l54 -50 -74
-125 c-129 -217 -196 -377 -242 -575 -30 -131 -37 -391 -14 -550 9 -66 17
-121 19 -122 1 -1 26 34 55 78 47 72 136 160 191 189 19 10 20 7 20 -74 0
-171 37 -330 110 -476 38 -77 138 -219 179 -255 28 -25 32 -18 66 95 27 91 63
172 80 177 6 2 19 -19 29 -47 36 -99 138 -219 251 -297 17 -11 115 -66 218
-121 278 -150 411 -246 553 -400 l61 -67 89 91 c154 158 266 236 551 387 184
98 244 138 320 215 53 54 110 143 146 233 12 30 47 -35 88 -164 l41 -132 49
55 c106 119 189 268 228 409 26 93 45 259 38 328 -3 29 -3 53 -1 53 3 0 25
-14 49 -30 62 -43 134 -118 175 -184 19 -31 38 -56 41 -56 11 0 30 147 36 270
10 200 -26 439 -92 615 -38 101 -105 234 -183 364 l-69 113 64 62 c62 61 63
63 52 94 -6 18 -8 39 -5 48 5 13 1 15 -18 10 -31 -8 -76 9 -97 36 -16 20 -16
20 -65 -15 -129 -91 -289 -147 -426 -147 -43 0 -78 -4 -78 -8 0 -12 82 -95
191 -193 75 -69 102 -100 127 -152 43 -87 43 -106 0 -74 -78 58 -217 110 -328
123 l-62 7 56 -59 c173 -179 281 -433 293 -691 15 -306 -97 -489 -286 -470
l-59 6 -22 -62 c-84 -230 -216 -358 -430 -416 -106 -29 -282 -42 -415 -31
-342 28 -514 145 -625 427 l-32 82 -59 -6 c-186 -19 -301 168 -286 466 12 255
116 504 286 683 62 67 63 68 35 68 -45 0 -185 -36 -247 -64 -31 -13 -77 -39
-102 -56 -56 -38 -57 -27 -9 68 28 57 52 87 117 144 45 40 110 102 145 138
l64 65 -108 6 c-176 10 -297 62 -403 174 -124 131 -151 311 -86 568 6 24 5 27
-19 27 -15 0 -54 -11 -87 -25 l-61 -24 7 27 c21 86 168 262 284 340 143 95
291 136 496 135 193 0 298 -23 596 -132 45 -16 63 -18 91 -10 37 10 77 41 96
74 10 19 11 18 32 -8 12 -15 25 -27 29 -27 3 0 15 21 24 48 68 182 262 378
454 455 121 49 189 61 333 61 116 -1 147 -5 223 -28 115 -34 205 -81 295 -150
39 -32 72 -53 72 -47 0 27 -52 310 -70 379 -81 318 -230 564 -519 853 -268
268 -442 372 -866 519 -99 34 -220 81 -270 105 -194 93 -300 245 -337 482 -7
40 -16 73 -22 73 -6 -1 -43 -13 -82 -29z"/>
<path d="M4160 5826 c-170 -37 -316 -124 -423 -253 -50 -61 -136 -217 -125
-228 3 -4 57 12 118 35 373 137 670 142 925 16 148 -74 274 -193 343 -323 15
-29 30 -53 35 -53 13 0 8 148 -8 228 -32 161 -152 349 -283 445 -65 48 -175
102 -247 121 -85 23 -254 29 -335 12z"/>
<path d="M2848 5333 c29 -15 76 -46 103 -68 100 -79 205 -238 179 -270 -19
-23 -52 -4 -148 92 -271 267 -523 321 -740 158 -50 -38 -152 -151 -152 -169 0
-4 22 5 49 19 64 32 120 41 144 23 17 -13 18 -19 7 -76 -30 -151 9 -264 109
-314 30 -16 70 -28 88 -28 18 0 33 -4 33 -9 0 -16 -54 -45 -115 -62 l-60 -16
40 -12 c96 -27 199 -4 338 73 130 73 284 105 347 73 37 -19 57 -59 43 -90 -10
-22 -19 -25 -91 -31 -147 -12 -233 -53 -289 -137 -25 -38 -28 -52 -30 -143
l-2 -101 18 58 c48 147 122 191 341 203 75 4 131 2 195 -10 82 -14 98 -14 190
0 122 20 274 13 369 -17 79 -24 136 -82 156 -156 22 -84 33 -75 28 22 -10 181
-89 253 -303 278 l-100 12 -42 80 c-39 74 -72 176 -88 268 l-6 38 -46 -41
c-25 -22 -54 -40 -64 -40 -28 0 -82 53 -174 171 -133 169 -217 232 -326 244
l-54 6 53 -28z m-185 -319 c59 -41 107 -78 107 -83 0 -4 -10 -23 -23 -41 -80
-121 -258 -80 -274 62 -7 59 34 139 70 138 7 -1 60 -34 120 -76z"/>
<path d="M3815 5351 c-56 -14 -119 -54 -182 -114 l-63 -60 0 -66 0 -66 26 45
c57 99 178 212 274 253 l35 15 -30 0 c-16 0 -43 -3 -60 -7z"/>
<path d="M4106 5328 c-116 -22 -254 -106 -385 -235 -47 -47 -98 -91 -114 -100
-27 -14 -29 -18 -23 -55 4 -23 19 -71 34 -107 l28 -66 74 -7 c90 -7 117 -17
283 -98 108 -53 138 -63 195 -67 38 -3 86 0 112 7 l45 13 -62 17 c-100 28
-149 70 -80 70 50 0 134 46 163 90 37 56 50 145 35 236 -10 61 -10 78 0 91 17
20 71 13 144 -21 l56 -25 -18 30 c-29 50 -156 164 -214 192 -89 44 -173 54
-273 35z m88 -268 c68 -81 31 -203 -72 -233 -61 -18 -106 -7 -148 35 -59 58
-53 72 66 154 58 40 110 73 117 74 6 0 23 -14 37 -30z"/>
<path d="M5145 5015 c-18 -146 -82 -313 -157 -407 l-31 -40 21 -17 c24 -18 45
-68 38 -88 -4 -9 5 -13 33 -13 39 0 39 0 69 73 66 159 86 297 62 437 -19 113
-26 124 -35 55z"/>
<path d="M4864 5008 c23 -81 36 -171 36 -246 1 -81 2 -86 16 -67 46 59 124
261 110 284 -9 14 -112 51 -143 51 -22 0 -24 -3 -19 -22z"/>
<path d="M2965 4325 c-53 -53 -28 -116 91 -231 48 -47 92 -99 102 -123 l19
-42 12 57 c16 81 14 133 -8 203 -42 136 -149 203 -216 136z"/>
<path d="M3609 4327 c-76 -51 -115 -153 -106 -283 6 -107 13 -117 44 -62 13
23 61 79 107 124 95 91 119 139 97 192 -22 54 -86 67 -142 29z"/>
<path d="M3162 3309 c-167 -19 -338 -74 -463 -149 -67 -40 -189 -149 -189
-169 0 -6 37 10 83 34 280 147 703 199 1092 133 145 -24 332 -84 432 -138 40
-21 73 -38 73 -36 0 14 -76 94 -125 131 -200 156 -563 233 -903 194z"/>
<path d="M3182 3000 c-78 -11 -193 -42 -252 -69 l-45 -20 120 0 120 -1 -50
-24 c-54 -26 -96 -55 -80 -56 6 0 45 12 89 25 160 52 232 44 252 -27 l10 -33
16 31 c9 17 24 37 33 44 30 25 130 12 290 -37 39 -12 -7 29 -60 53 l-50 24
115 0 115 1 -39 20 c-79 42 -221 70 -376 74 -80 2 -173 0 -208 -5z"/>
<path d="M433 1640 c-77 -18 -146 -77 -187 -158 -37 -73 -34 -104 64 -601 83
-422 96 -477 124 -524 38 -63 106 -111 179 -126 37 -8 847 -11 2762 -9 l2710
3 46 21 c62 29 110 74 137 127 32 65 205 942 200 1017 -7 99 -63 180 -161 232
l-42 23 -1333 3 -1333 2 -86 -90 c-141 -147 -189 -147 -330 1 l-86 89 -1316
-1 c-724 -1 -1330 -4 -1348 -9z m1267 -315 l0 -135 -280 0 -280 0 0 -70 0 -70
245 0 245 0 0 -135 0 -135 -245 0 -245 0 0 -195 0 -195 -145 0 -145 0 0 523
c0 393 3 526 12 535 9 9 117 12 425 12 l413 0 0 -135z m3661 -150 l184 -285 3
286 2 285 143 -3 142 -3 3 -532 2 -533 -147 0 -148 0 -180 278 -180 279 -3
-279 -2 -278 -145 0 -145 0 0 528 c0 291 3 532 7 535 3 4 68 7 144 7 l137 0
183 -285z m-2896 160 c353 -92 481 -529 233 -791 -63 -67 -124 -106 -208 -134
-86 -29 -235 -25 -322 9 -171 66 -292 234 -305 421 -10 138 38 263 141 366
124 124 295 172 461 129z m1067 -4 c83 -22 178 -65 178 -82 0 -23 -112 -200
-123 -196 -127 54 -148 60 -220 65 -90 5 -127 -8 -127 -44 0 -34 30 -49 170
-83 262 -65 333 -133 332 -313 -1 -85 -24 -140 -84 -194 -68 -63 -140 -86
-281 -92 -72 -3 -142 0 -180 8 -80 15 -217 68 -224 86 -6 17 97 203 113 204 7
0 41 -14 76 -30 69 -32 184 -52 247 -43 85 13 95 78 16 107 -11 5 -65 18 -120
31 -148 34 -212 61 -261 111 -119 119 -84 339 70 429 97 56 277 72 418 36z
m1001 -466 c86 -236 160 -440 163 -453 l6 -22 -134 0 -134 0 -21 57 -20 58
-130 3 -129 3 -21 -58 -20 -58 -137 -3 -136 -3 28 78 c16 43 91 248 167 456
l138 378 111 -3 111 -3 158 -430z"/>
<path d="M2286 1090 c-51 -16 -103 -60 -130 -109 -55 -103 -23 -239 72 -306
39 -27 52 -30 117 -30 65 0 78 3 116 30 141 99 127 323 -24 401 -36 19 -113
26 -151 14z"/>
<path d="M4237 826 c-15 -44 -25 -81 -23 -83 2 -2 26 -3 53 -1 l50 3 -27 80
-27 80 -26 -79z"/>
</g>
</svg>
